<svg xmlns="http://www.w3.org/2000/svg" version="1.1" xmlns:xlink="http://www.w3.org/1999/xlink" xmlns:svgjs="http://svgjs.dev/svgjs" width="1500" height="700" viewBox="0 0 1500 700"><g transform="matrix(1,0,0,1,-0.9090909090911055,-0.043230538157956744)"><svg viewBox="0 0 396 185" data-background-color="#fafafa" preserveAspectRatio="xMidYMid meet" height="700" width="1500" xmlns="http://www.w3.org/2000/svg" xmlns:xlink="http://www.w3.org/1999/xlink"><g id="tight-bounds" transform="matrix(1,0,0,1,0.24000000000003752,0.011448460227981627)"><svg viewBox="0 0 395.5199999999999 184.97584521984098" height="184.97584521984098" width="395.5199999999999"><g><svg viewBox="0 0 676.9440376958164 316.59156436922416" height="184.97584521984098" width="395.5199999999999"><g><svg viewBox="0 0 379.255066029024 316.59156436922416" height="316.59156436922416" width="379.255066029024"><g id="textblocktransform"><svg viewBox="0 0 379.255066029024 316.59156436922416" height="316.59156436922416" width="379.255066029024" id="textblock"><g><svg viewBox="0 0 379.255066029024 245.672304" height="245.672304" width="379.255066029024"><g transform="matrix(1,0,0,1,0,0)"><svg width="379.255066029024" viewBox="3.55 -35.10190969443001 54.900000000000006 35.56288530418611" height="245.672304" data-palette-color="#046e04"><g class="wordmark-text-0" data-fill-palette-color="primary" id="text-0"><path d="M22.55-18.3Q21.35-18.2 20.8-18.2L20.8-18.2Q17.1-17.95 15.1-17.65L15.1-17.65Q14-17.45 12.4-14.95L12.4-14.95Q11.05-12.85 10.55-8.3L10.55-8.3 10-6.5Q9.75-5.6 9.25-4.95L9.25-4.95Q8.95-4.6 8.47-4.38 8-4.15 7.5-4.15L7.5-4.15Q7.75-4.15 7.3-4.7L7.3-4.7Q6.3-6.05 5.83-6.88 5.35-7.7 5.35-8.75L5.35-8.75Q5.35-9.2 5.5-9.8L5.5-9.8Q5.75-10.55 5.8-11.3L5.8-11.3Q5.9-11.6 6-12.18 6.1-12.75 6.25-13.15L6.25-13.15Q6.4-13.6 6.4-14L6.4-14Q6.4-15.1 5.25-16.1L5.25-16.1Q3.55-17.55 3.55-18.75L3.55-18.75Q3.55-20.15 5.75-21.35L5.75-21.35Q5.95-21.45 6.33-21.7 6.7-21.95 7-22L7-22Q8.05-22.25 8.53-22.95 9-23.65 9.35-24.9L9.35-24.9Q10.3-28.2 11.45-32L11.45-32 12-33.8Q12.1-34.15 12.55-35.1L12.55-35.1Q14.75-35.15 15.68-33.9 16.6-32.65 16.6-30.65L16.6-30.65Q16.6-30.35 16.5-29.75L16.5-29.75 16.05-27.75 15.75-26.65 15.25-24 17.9-23.8 24.25-23.25 25.95-28.5 26.35-30.2Q27.8-32.1 28.9-31.1L28.9-31.1Q29.95-30.15 30.73-28.98 31.5-27.8 31.5-26.3L31.5-26.3Q31.5-24.85 30.65-22.6L30.65-22.6Q31.05-22.35 31.6-22.18 32.15-22 32.35-21.95L32.35-21.95Q33.9-21.5 34.75-20.9 35.6-20.3 35.8-18.75L35.8-18.75Q35.2-17.8 34.2-17.5 33.2-17.2 31.85-17.35L31.85-17.35Q31.35-17.4 30.55-17.4L30.55-17.4Q29.45-17.4 29.1-16.95 28.75-16.5 28.25-14.85L28.25-14.85 27.65-12.9Q26.45-9 25.93-6.65 25.4-4.3 25.2-1.75L25.2-1.75Q25.2-1.55 25.18-0.93 25.15-0.3 24.85 0.08 24.55 0.45 23.9 0.45L23.9 0.45Q22.25 0.6 21.9-1.3L21.9-1.3Q20.7-3.95 20.7-6.4L20.7-6.4Q20.7-7.45 20.8-8L20.8-8Q21.35-11.2 22.25-16.15L22.25-16.15 22.55-18.3ZM50.35-4.65Q50.15-4.9 49.75-5.23 49.35-5.55 49.05-5.8L49.05-5.8 47.85-4.15 46.2-1.85Q45.65-1.1 44.82-0.73 44-0.35 43.1-0.35L43.1-0.35Q41.95-0.35 41-0.93 40.05-1.5 39.6-2.6L39.6-2.6Q39.5-2.9 39.5-3.15L39.5-3.15Q39.5-4 39.95-4.65L39.95-4.65Q42.25-7.75 44.4-10.05L44.4-10.05Q44.8-10.45 45.22-10.88 45.65-11.3 45.65-11.45L45.65-11.45Q45.65-11.55 45.27-11.98 44.9-12.4 44.55-13L44.55-13Q44.3-13.45 43.3-14.65L43.3-14.65 42.2-16.15Q41.9-16.6 41.7-17.3 41.5-18 41.4-18.3L41.4-18.3Q41.75-18.4 42.45-18.7L42.45-18.7Q43.9-19.35 44.5-19.15L44.5-19.15Q45.9-18.6 46.92-17.98 47.95-17.35 48.3-16.4L48.3-16.4Q48.45-16 48.65-15.48 48.85-14.95 49-14.75 49.15-14.55 49.3-14.55L49.3-14.55Q49.5-14.55 49.97-15 50.45-15.45 51.15-16.2L51.15-16.2Q51.7-16.75 52.45-17.23 53.2-17.7 53.95-18.1L53.95-18.1Q54.7-18.5 55.4-18.5L55.4-18.5Q56.2-18.5 56.9-18.05 57.6-17.6 58.35-16.75L58.35-16.75Q58.45-16.55 58.45-16.35L58.45-16.35Q58.45-16.05 58.32-15.7 58.2-15.35 58.05-15.15L58.05-15.15Q56.8-13.7 54.9-12.15L54.9-12.15Q54.7-12 54.47-11.8 54.25-11.6 54-11.4L54-11.4Q53.25-10.8 52.8-10.38 52.35-9.95 52.35-9.65L52.35-9.65Q52.35-9.3 53.1-8.4L53.1-8.4 54.3-6.8Q55.65-4.65 56.15-3.35L56.15-3.35Q56.3-3 56.3-2.45L56.3-2.45Q56.3-2.05 56.25-1.7 56.2-1.35 56.2-0.95L56.2-0.95Q55.5-1.05 55.05-1.05L55.05-1.05Q54.9-1.05 54.2-1.15 53.5-1.25 53-1.55L53-1.55Q52.35-2 51.82-2.73 51.3-3.45 51.2-3.55L51.2-3.55 50.35-4.65Z" fill="#046e04" data-fill-palette-color="primary"></path></g></svg></g></svg></g><g transform="matrix(1,0,0,1,156.59441676338406,303.669638839104)"><svg viewBox="0 0 222.66064926563996 12.921925530120182" height="12.921925530120182" width="222.66064926563996"><g transform="matrix(1,0,0,1,0,0)"><svg width="222.66064926563996" viewBox="4.68 -35.38 618.87 35.912591229552" height="12.921925530120182" data-palette-color="#1a76d1"><path d="M27.41-19.87L27.41-32.78Q27.41-34.24 28.8-34.68L28.8-34.68Q29.18-34.81 29.81-34.81 30.44-34.81 31.11-34.3 31.77-33.8 31.77-32.78L31.77-32.78 31.77-2.03Q31.77-0.57 30.38-0.13L30.38-0.13Q30 0 29.37 0 28.73 0 28.07-0.51 27.41-1.01 27.41-2.03L27.41-2.03 27.41-16.27 9.05-16.27 9.05-2.03Q9.05-0.57 7.66-0.13L7.66-0.13Q7.28 0 6.65 0 6.01 0 5.35-0.51 4.68-1.01 4.68-2.03L4.68-2.03 4.68-32.78Q4.68-34.24 6.08-34.68L6.08-34.68Q6.52-34.81 7.12-34.81 7.72-34.81 8.39-34.3 9.05-33.8 9.05-32.78L9.05-32.78 9.05-19.87 27.41-19.87ZM38.54-12.03L38.54-12.03Q38.54-14.3 39.27-16.65 40-18.99 41.52-20.76L41.52-20.76Q44.81-24.75 50.63-24.75L50.63-24.75Q56.33-24.75 59.74-20.76L59.74-20.76Q62.72-17.28 62.72-12.09L62.72-12.09Q62.72-6.96 59.74-3.42L59.74-3.42Q56.39 0.51 50.63 0.51L50.63 0.51Q44.74 0.51 41.52-3.42L41.52-3.42Q38.54-7.03 38.54-12.03ZM42.72-12.03L42.72-12.03Q42.72-10.51 43.16-8.8 43.61-7.09 44.55-5.7L44.55-5.7Q46.77-2.47 50.63-2.47L50.63-2.47Q54.55-2.47 56.71-5.7L56.71-5.7Q58.48-8.42 58.48-12.09L58.48-12.09Q58.48-15.7 56.71-18.48L56.71-18.48Q54.62-21.71 50.63-21.71L50.63-21.71Q46.71-21.71 44.55-18.48L44.55-18.48Q42.72-15.76 42.72-12.03ZM88.6-19.56L88.6-19.56Q91.64-24.75 97.4-24.75L97.4-24.75Q103.29-24.75 105.31-19.75L105.31-19.75Q106.01-17.97 106.01-15.44L106.01-15.44 106.01-1.84Q106.01-0.89 105.37-0.44 104.74 0 104.01 0 103.29 0 102.68-0.44 102.08-0.89 102.08-1.84L102.08-1.84 102.08-15.7Q102.08-20.19 98.6-21.39L98.6-21.39Q97.59-21.71 96.36-21.71 95.12-21.71 93.86-21.3 92.59-20.89 91.51-20L91.51-20Q89.24-18.04 89.24-14.11L89.24-14.11 89.24-1.84Q89.24-0.89 88.6-0.44 87.97 0 87.24 0 86.51 0 85.91-0.47 85.31-0.95 85.31-1.84L85.31-1.84 85.31-15.7Q85.31-20.19 81.83-21.39L81.83-21.39Q80.82-21.71 79.52-21.71 78.22-21.71 76.93-21.23 75.63-20.76 74.68-19.81L74.68-19.81Q72.53-17.78 72.53-14.05L72.53-14.05 72.53-1.84Q72.53-0.89 71.89-0.44 71.26 0 70.5 0 69.74 0 69.14-0.44 68.54-0.89 68.54-1.84L68.54-1.84 68.54-22.41Q68.54-23.29 69.17-23.73 69.81-24.18 70.37-24.18 70.94-24.18 71.26-24.08 71.58-23.99 71.89-23.8L71.89-23.8Q72.53-23.23 72.53-22.47L72.53-22.47 72.53-20.19Q73.92-23.42 78.1-24.43L78.1-24.43Q79.36-24.75 80.63-24.75L80.63-24.75Q86.7-24.75 88.6-19.56ZM135.12-12.85L135.12-12.85Q135.12-12.28 134.74-11.87 134.36-11.46 133.54-11.46L133.54-11.46 116.07-11.46Q116.2-6.77 118.54-4.68L118.54-4.68Q121.01-2.47 124.23-2.47L124.23-2.47Q127.65-2.47 131.51-5L131.51-5Q132.02-5.38 132.56-5.38 133.09-5.38 133.41-5 133.73-4.62 133.73-4.24L133.73-4.24Q133.73-3.48 133.22-2.97L133.22-2.97Q129.49 0.51 123.92 0.51L123.92 0.51Q118.73 0.51 115.5-2.85L115.5-2.85Q111.95-6.46 111.95-12.09L111.95-12.09Q111.95-17.34 114.93-20.89L114.93-20.89Q118.16-24.75 123.54-24.75L123.54-24.75Q129.17-24.75 132.21-21.33L132.21-21.33Q134.99-18.16 135.12-12.85ZM116.2-13.99L131.26-13.99Q131.01-17.53 129.11-19.62L129.11-19.62Q127.21-21.71 123.6-21.71L123.6-21.71Q120.44-21.71 118.41-19.43L118.41-19.43Q116.45-17.22 116.2-13.99L116.2-13.99ZM139.36-12.03L139.36-12.03Q139.36-14.3 140.08-16.65 140.81-18.99 142.33-20.76L142.33-20.76Q145.62-24.75 151.45-24.75L151.45-24.75Q157.14-24.75 160.56-20.76L160.56-20.76Q163.53-17.28 163.53-12.09L163.53-12.09Q163.53-6.96 160.56-3.42L160.56-3.42Q157.21 0.51 151.45 0.51L151.45 0.51Q145.56 0.51 142.33-3.42L142.33-3.42Q139.36-7.03 139.36-12.03ZM143.53-12.03L143.53-12.03Q143.53-10.51 143.98-8.8 144.42-7.09 145.37-5.7L145.37-5.7Q147.58-2.47 151.45-2.47L151.45-2.47Q155.37-2.47 157.52-5.7L157.52-5.7Q159.29-8.42 159.29-12.09L159.29-12.09Q159.29-15.7 157.52-18.48L157.52-18.48Q155.43-21.71 151.45-21.71L151.45-21.71Q147.52-21.71 145.37-18.48L145.37-18.48Q143.53-15.76 143.53-12.03ZM171.51-24.18L171.51-24.18Q173.34-24.18 173.34-22.34L173.34-22.34 173.34-20.19Q174.92-24.75 179.99-24.75L179.99-24.75Q180.94-24.75 181.44-24.21 181.95-23.67 181.95-23.04 181.95-22.41 181.47-21.9 181-21.39 179.67-21.39 178.34-21.39 177.11-20.85 175.87-20.32 175.05-19.37L175.05-19.37Q173.34-17.28 173.34-13.8L173.34-13.8 173.34-1.84Q173.34-0.95 172.71-0.47 172.08 0 171.51 0 170.94 0 170.59-0.09 170.24-0.19 169.99-0.38L169.99-0.38Q169.42-0.89 169.42-1.84L169.42-1.84 169.42-22.34Q169.42-23.23 170.02-23.7 170.62-24.18 171.51-24.18ZM185.3-2.66L193.02-12.41 186-21.2Q185.62-21.71 185.62-22.18 185.62-22.66 185.81-23.01 186-23.35 186.31-23.61L186.31-23.61Q186.95-24.18 187.52-24.18L187.52-24.18Q188.59-24.18 189.29-23.35L189.29-23.35 195.74-14.87 202.33-23.48Q202.9-24.18 203.66-24.18 204.42-24.18 204.95-23.7 205.49-23.23 205.49-22.63 205.49-22.03 205.11-21.58L205.11-21.58 198.09-12.47 205.62-2.91Q206-2.41 206-1.96 206-1.52 205.84-1.17 205.68-0.82 205.36-0.57L205.36-0.57Q204.67 0 204.04 0L204.04 0Q203.02 0 202.33-0.82L202.33-0.82 195.3-10.06 188.21-0.7Q187.71 0 187.11 0 186.5 0 186.16-0.16 185.81-0.32 185.55-0.51L185.55-0.51Q184.99-1.01 184.99-1.61 184.99-2.22 185.3-2.66L185.3-2.66ZM233.84-11.14L224.35-11.14Q223.59-11.14 223.08-11.65 222.57-12.15 222.57-12.88 222.57-13.61 223.08-14.11 223.59-14.62 224.35-14.62L224.35-14.62 233.84-14.62Q234.6-14.62 235.11-14.11 235.61-13.61 235.61-12.88 235.61-12.15 235.11-11.65 234.6-11.14 233.84-11.14L233.84-11.14ZM252.25-12.09L252.25-12.09Q252.25-17.47 255.23-21.01L255.23-21.01Q258.46-24.75 263.77-24.75L263.77-24.75Q266.43-24.75 268.08-24.11L268.08-24.11Q271.18-22.91 271.18-21.58L271.18-21.58Q271.18-21.01 270.8-20.57 270.42-20.13 269.94-20.13 269.47-20.13 269.15-20.25L269.15-20.25Q266.68-21.65 264.56-21.68 262.44-21.71 260.99-21.01 259.53-20.32 258.52-19.11L258.52-19.11Q256.37-16.46 256.37-12.15L256.37-12.15Q256.37-8.23 258.01-5.57L258.01-5.57Q259.98-2.47 264.09-2.47L264.09-2.47Q266.56-2.47 269.6-4.05L269.6-4.05Q270.67-4.43 271.15-3.92 271.62-3.42 271.62-2.75 271.62-2.09 270.8-1.46 269.98-0.82 268.77-0.38L268.77-0.38Q263.08 1.52 258.65-0.51L258.65-0.51Q254.53-2.41 252.95-7.22L252.95-7.22Q252.25-9.49 252.25-12.09ZM298.2-22.34L298.2-1.84Q298.2-0.89 297.57-0.44 296.93 0 296.4 0 295.86 0 295.51-0.09 295.16-0.19 294.91-0.38L294.91-0.38Q294.28-0.95 294.28-1.77L294.28-1.77 294.28-3.99Q292.76-0.7 288.64 0.25L288.64 0.25Q287.44 0.51 285.92 0.51 284.4 0.51 282.85 0 281.3-0.51 280.1-1.65L280.1-1.65Q277.5-4.18 277.5-8.92L277.5-8.92 277.5-22.34Q277.5-23.29 278.11-23.73 278.71-24.18 279.47-24.18L279.47-24.18Q280.23-24.18 280.83-23.73 281.43-23.29 281.43-22.34L281.43-22.34 281.43-8.67Q281.43-5.19 282.76-3.86L282.76-3.86Q284.15-2.47 287-2.47L287-2.47Q291.81-2.47 293.58-6.33L293.58-6.33Q294.15-7.66 294.28-9.43L294.28-9.43 294.28-22.34Q294.28-23.23 294.91-23.7 295.54-24.18 296.27-24.18 297-24.18 297.6-23.73 298.2-23.29 298.2-22.34L298.2-22.34ZM307.82-24.18L307.82-24.18Q309.65-24.18 309.65-22.34L309.65-22.34 309.65-20.19Q311.24-24.75 316.3-24.75L316.3-24.75Q317.25-24.75 317.75-24.21 318.26-23.67 318.26-23.04 318.26-22.41 317.79-21.9 317.31-21.39 315.98-21.39 314.65-21.39 313.42-20.85 312.19-20.32 311.36-19.37L311.36-19.37Q309.65-17.28 309.65-13.8L309.65-13.8 309.65-1.84Q309.65-0.95 309.02-0.47 308.39 0 307.82 0 307.25 0 306.9-0.09 306.55-0.19 306.3-0.38L306.3-0.38Q305.73-0.89 305.73-1.84L305.73-1.84 305.73-22.34Q305.73-23.23 306.33-23.7 306.93-24.18 307.82-24.18ZM344.65-12.85L344.65-12.85Q344.65-12.28 344.27-11.87 343.89-11.46 343.07-11.46L343.07-11.46 325.6-11.46Q325.73-6.77 328.07-4.68L328.07-4.68Q330.54-2.47 333.76-2.47L333.76-2.47Q337.18-2.47 341.04-5L341.04-5Q341.55-5.38 342.09-5.38 342.63-5.38 342.94-5 343.26-4.62 343.26-4.24L343.26-4.24Q343.26-3.48 342.75-2.97L342.75-2.97Q339.02 0.51 333.45 0.51L333.45 0.51Q328.26 0.51 325.03-2.85L325.03-2.85Q321.49-6.46 321.49-12.09L321.49-12.09Q321.49-17.34 324.46-20.89L324.46-20.89Q327.69-24.75 333.07-24.75L333.07-24.75Q338.7-24.75 341.74-21.33L341.74-21.33Q344.52-18.16 344.65-12.85ZM325.73-13.99L340.79-13.99Q340.54-17.53 338.64-19.62L338.64-19.62Q336.74-21.71 333.13-21.71L333.13-21.71Q329.97-21.71 327.94-19.43L327.94-19.43Q325.98-17.22 325.73-13.99L325.73-13.99ZM376.1-32.03L376.1-32.03 373.44-32.34Q371.48-32.34 370.91-30.76L370.91-30.76Q370.34-29.49 370.34-25L370.34-25 370.34-24.18 374.52-24.18Q375.28-24.18 375.69-23.73 376.1-23.29 376.1-22.75 376.1-22.22 375.72-21.77 375.34-21.33 374.52-21.33L374.52-21.33 370.34-21.33 370.34-1.9Q370.34-0.95 369.74-0.47 369.14 0 368.57 0 368 0 367.65-0.13 367.3-0.25 367.05-0.51L367.05-0.51Q366.42-1.01 366.42-1.9L366.42-1.9 366.42-21.33 363.13-21.33Q362.37-21.33 361.99-21.77 361.61-22.22 361.61-22.75 361.61-23.29 361.99-23.73 362.37-24.18 363.13-24.18L363.13-24.18 366.42-24.18 366.42-26.9Q366.42-33.54 370.03-34.94L370.03-34.94Q371.17-35.38 372.3-35.38L372.3-35.38Q374.46-35.38 376.48-34.75L376.48-34.75Q377.43-34.49 377.43-33.42L377.43-33.42Q377.43-32.91 377.11-32.47 376.8-32.03 376.1-32.03ZM383.38-24.18L383.38-24.18Q385.21-24.18 385.21-22.34L385.21-22.34 385.21-20.19Q386.8-24.75 391.86-24.75L391.86-24.75Q392.81-24.75 393.31-24.21 393.82-23.67 393.82-23.04 393.82-22.41 393.35-21.9 392.87-21.39 391.54-21.39 390.21-21.39 388.98-20.85 387.74-20.32 386.92-19.37L386.92-19.37Q385.21-17.28 385.21-13.8L385.21-13.8 385.21-1.84Q385.21-0.95 384.58-0.47 383.95 0 383.38 0 382.81 0 382.46-0.09 382.11-0.19 381.86-0.38L381.86-0.38Q381.29-0.89 381.29-1.84L381.29-1.84 381.29-22.34Q381.29-23.23 381.89-23.7 382.49-24.18 383.38-24.18ZM396.86-12.03L396.86-12.03Q396.86-14.3 397.58-16.65 398.31-18.99 399.83-20.76L399.83-20.76Q403.12-24.75 408.94-24.75L408.94-24.75Q414.64-24.75 418.06-20.76L418.06-20.76Q421.03-17.28 421.03-12.09L421.03-12.09Q421.03-6.96 418.06-3.42L418.06-3.42Q414.7 0.51 408.94 0.51L408.94 0.51Q403.06 0.51 399.83-3.42L399.83-3.42Q396.86-7.03 396.86-12.03ZM401.03-12.03L401.03-12.03Q401.03-10.51 401.48-8.8 401.92-7.09 402.87-5.7L402.87-5.7Q405.08-2.47 408.94-2.47L408.94-2.47Q412.87-2.47 415.02-5.7L415.02-5.7Q416.79-8.42 416.79-12.09L416.79-12.09Q416.79-15.7 415.02-18.48L415.02-18.48Q412.93-21.71 408.94-21.71L408.94-21.71Q405.02-21.71 402.87-18.48L402.87-18.48Q401.03-15.76 401.03-12.03ZM446.92-19.56L446.92-19.56Q449.96-24.75 455.71-24.75L455.71-24.75Q461.6-24.75 463.63-19.75L463.63-19.75Q464.32-17.97 464.32-15.44L464.32-15.44 464.32-1.84Q464.32-0.89 463.69-0.44 463.06 0 462.33 0 461.6 0 461-0.44 460.4-0.89 460.4-1.84L460.4-1.84 460.4-15.7Q460.4-20.19 456.92-21.39L456.92-21.39Q455.9-21.71 454.67-21.71 453.44-21.71 452.17-21.3 450.9-20.89 449.83-20L449.83-20Q447.55-18.04 447.55-14.11L447.55-14.11 447.55-1.84Q447.55-0.89 446.92-0.44 446.28 0 445.56 0 444.83 0 444.23-0.47 443.63-0.95 443.63-1.84L443.63-1.84 443.63-15.7Q443.63-20.19 440.14-21.39L440.14-21.39Q439.13-21.71 437.83-21.71 436.54-21.71 435.24-21.23 433.94-20.76 432.99-19.81L432.99-19.81Q430.84-17.78 430.84-14.05L430.84-14.05 430.84-1.84Q430.84-0.89 430.21-0.44 429.58 0 428.82 0 428.06 0 427.46-0.44 426.85-0.89 426.85-1.84L426.85-1.84 426.85-22.41Q426.85-23.29 427.49-23.73 428.12-24.18 428.69-24.18 429.26-24.18 429.58-24.08 429.89-23.99 430.21-23.8L430.21-23.8Q430.84-23.23 430.84-22.47L430.84-22.47 430.84-20.19Q432.23-23.42 436.41-24.43L436.41-24.43Q437.68-24.75 438.94-24.75L438.94-24.75Q445.02-24.75 446.92-19.56ZM485.52-1.84L485.52-22.41Q485.52-23.29 486.12-23.73 486.72-24.18 487.8-24.18L487.8-24.18Q489.82-24.18 489.44-20.19L489.44-20.19Q490.9-23.23 495.01-24.43L495.01-24.43Q496.28-24.75 497.8-24.75 499.32-24.75 500.87-24.21 502.42-23.67 503.62-22.53L503.62-22.53Q506.22-20.06 506.22-15.25L506.22-15.25 506.22-1.84Q506.22-0.89 505.58-0.44 504.95 0 504.22 0 503.49 0 502.89-0.47 502.29-0.95 502.29-1.84L502.29-1.84 502.29-15.57Q502.29-20 498.81-21.33L498.81-21.33Q497.8-21.71 496.5-21.71 495.2-21.71 493.87-21.2 492.54-20.7 491.6-19.87L491.6-19.87Q489.44-17.97 489.44-14.05L489.44-14.05 489.44-1.84Q489.44-0.89 488.81-0.44 488.18 0 487.42 0L487.42 0Q486.66 0 486.09-0.47 485.52-0.95 485.52-1.84L485.52-1.84ZM525.2-14.75L525.2-14.75 527.99-14.68 527.99-16.77Q527.99-21.71 522.42-21.71L522.42-21.71Q519.82-21.71 518.68-21.27L518.68-21.27Q517.35-20.76 516.15-20.09 514.95-19.43 514.41-19.43 513.87-19.43 513.46-19.84 513.05-20.25 513.05-20.82L513.05-20.82Q513.05-21.39 513.56-21.84L513.56-21.84Q516.59-24.75 522.54-24.75L522.54-24.75Q529.19-24.75 531.09-20.19L531.09-20.19Q531.78-18.61 531.78-16.46L531.78-16.46 531.72-1.71Q531.72-0.82 531.15-0.41 530.58 0 529.85 0 529.12 0 528.56-0.41 527.99-0.82 527.99-1.65L527.99-1.65 527.99-3.92Q526.47-0.7 522.48 0.25L522.48 0.25Q521.21 0.51 519.73 0.51 518.24 0.51 516.72 0.03 515.2-0.44 514.06-1.39L514.06-1.39Q511.66-3.29 511.66-6.71L511.66-6.71Q511.66-14.75 525.2-14.75ZM527.99-9.68L527.99-11.84Q526.91-11.77 525.55-11.77 524.19-11.77 522.83-11.71 521.47-11.65 520.17-11.39 518.87-11.14 517.86-10.63L517.86-10.63Q515.58-9.37 515.58-6.84L515.58-6.84Q515.58-4.81 517.16-3.54L517.16-3.54Q518.43-2.59 520.83-2.47L520.83-2.47Q523.74-2.47 525.77-4.3L525.77-4.3Q527.86-6.14 527.99-9.68L527.99-9.68ZM551.97-1.46L551.97-1.46Q551.97 0.51 547.48 0.51L547.48 0.51Q544.06 0.51 542.6-1.27L542.6-1.27Q541.08-3.23 541.08-7.78L541.08-7.78 541.08-21.27 538.17-21.27Q537.41-21.27 537-21.71 536.59-22.15 536.59-22.72L536.59-22.72Q536.59-23.29 536.97-23.73 537.35-24.18 538.17-24.18L538.17-24.18 541.21-24.18 541.53-31.08Q541.59-31.84 542.16-32.28 542.73-32.72 543.36-32.72L543.36-32.72Q545.01-32.72 545.01-31.14L545.01-31.14 545.01-24.18 549.38-24.18Q550.13-24.18 550.55-23.73 550.96-23.29 550.96-22.72L550.96-22.72Q550.96-22.15 550.55-21.71 550.13-21.27 549.38-21.27L549.38-21.27 545.01-21.27 545.01-9.94Q545.01-5.32 545.36-4.27 545.7-3.23 546.31-2.85 546.91-2.47 547.98-2.47L547.98-2.47 550.58-2.72Q551.27-2.72 551.62-2.28 551.97-1.84 551.97-1.46ZM577.09-22.34L577.09-1.84Q577.09-0.89 576.46-0.44 575.83 0 575.29 0 574.75 0 574.4-0.09 574.06-0.19 573.8-0.38L573.8-0.38Q573.17-0.95 573.17-1.77L573.17-1.77 573.17-3.99Q571.65-0.7 567.54 0.25L567.54 0.25Q566.33 0.51 564.82 0.51 563.3 0.51 561.75 0 560.2-0.51 558.99-1.65L558.99-1.65Q556.4-4.18 556.4-8.92L556.4-8.92 556.4-22.34Q556.4-23.29 557-23.73 557.6-24.18 558.36-24.18L558.36-24.18Q559.12-24.18 559.72-23.73 560.32-23.29 560.32-22.34L560.32-22.34 560.32-8.67Q560.32-5.19 561.65-3.86L561.65-3.86Q563.04-2.47 565.89-2.47L565.89-2.47Q570.7-2.47 572.47-6.33L572.47-6.33Q573.04-7.66 573.17-9.43L573.17-9.43 573.17-22.34Q573.17-23.23 573.8-23.7 574.44-24.18 575.16-24.18 575.89-24.18 576.49-23.73 577.09-23.29 577.09-22.34L577.09-22.34ZM586.71-24.18L586.71-24.18Q588.55-24.18 588.55-22.34L588.55-22.34 588.55-20.19Q590.13-24.75 595.19-24.75L595.19-24.75Q596.14-24.75 596.65-24.21 597.16-23.67 597.16-23.04 597.16-22.41 596.68-21.9 596.21-21.39 594.88-21.39 593.55-21.39 592.31-20.85 591.08-20.32 590.26-19.37L590.26-19.37Q588.55-17.28 588.55-13.8L588.55-13.8 588.55-1.84Q588.55-0.95 587.91-0.47 587.28 0 586.71 0 586.14 0 585.79-0.09 585.45-0.19 585.19-0.38L585.19-0.38Q584.62-0.89 584.62-1.84L584.62-1.84 584.62-22.34Q584.62-23.23 585.22-23.7 585.83-24.18 586.71-24.18ZM623.55-12.85L623.55-12.85Q623.55-12.28 623.17-11.87 622.79-11.46 621.96-11.46L621.96-11.46 604.49-11.46Q604.62-6.77 606.96-4.68L606.96-4.68Q609.43-2.47 612.66-2.47L612.66-2.47Q616.08-2.47 619.94-5L619.94-5Q620.44-5.38 620.98-5.38 621.52-5.38 621.84-5 622.15-4.62 622.15-4.24L622.15-4.24Q622.15-3.48 621.65-2.97L621.65-2.97Q617.91 0.51 612.34 0.51L612.34 0.51Q607.15 0.51 603.92-2.85L603.92-2.85Q600.38-6.46 600.38-12.09L600.38-12.09Q600.38-17.34 603.36-20.89L603.36-20.89Q606.58-24.75 611.96-24.75L611.96-24.75Q617.6-24.75 620.63-21.33L620.63-21.33Q623.42-18.16 623.55-12.85ZM604.62-13.99L619.68-13.99Q619.43-17.53 617.53-19.62L617.53-19.62Q615.63-21.71 612.03-21.71L612.03-21.71Q608.86-21.71 606.84-19.43L606.84-19.43Q604.87-17.22 604.62-13.99L604.62-13.99Z" opacity="1" transform="matrix(1,0,0,1,0,0)" fill="#1a76d1" class="slogan-text-1" data-fill-palette-color="secondary" id="text-1"></path></svg></g></svg></g></svg></g></svg></g><g transform="matrix(1,0,0,1,495.24973570723205,67.44863119031987)"><svg viewBox="0 0 181.6943019885844 181.6943019885844" height="181.6943019885844" width="181.6943019885844"><g><svg></svg></g><g id="icon-0"><svg viewBox="0 0 181.6943019885844 181.6943019885844" height="181.6943019885844" width="181.6943019885844"><g><path d="M0 90.847c0-50.173 40.674-90.847 90.847-90.847 50.173 0 90.847 40.674 90.847 90.847 0 50.173-40.674 90.847-90.847 90.847-50.173 0-90.847-40.674-90.847-90.847zM90.847 159.539c37.938 0 68.692-30.755 68.692-68.692 0-37.938-30.755-68.692-68.692-68.692-37.938 0-68.692 30.755-68.692 68.692 0 37.938 30.755 68.692 68.692 68.692z" data-fill-palette-color="accent" fill="#1a76d1" stroke="transparent"></path></g><g transform="matrix(1,0,0,1,71.57825552132269,51.801770096684265)"><svg viewBox="0 0 38.53779094593904 78.09076179521588" height="78.09076179521588" width="38.53779094593904"><g><svg xmlns="http://www.w3.org/2000/svg" xmlns:xlink="http://www.w3.org/1999/xlink" version="1.1" x="0" y="0" viewBox="27.793 5 44.415 90" enable-background="new 0 0 100 100" xml:space="preserve" height="78.09076179521588" width="38.53779094593904" class="icon-dxe-0" data-fill-palette-color="accent" id="dxe-0"><path d="M42.983 5H40.837A2.355 2.355 0 0 0 38.482 7.355V21.099C38.482 22.31 39.4 23.297 40.577 23.428 32.901 27.036 27.793 34.839 27.793 43.515V86.582C27.793 91.224 31.569 95 36.21 95H63.79C68.432 95 72.208 91.224 72.208 86.582V43.515C72.208 34.839 67.099 27.035 59.424 23.428A2.347 2.347 0 0 0 61.518 21.099V7.355C61.518 6.055 60.464 5 59.164 5zM58.243 8.448A0.589 0.589 0 1 1 59.421 8.448V20.224A0.59 0.59 0 0 1 58.243 20.224zM55.299 8.448A0.589 0.589 0 1 1 56.477 8.448V20.224A0.59 0.59 0 0 1 55.299 20.224zM53.533 8.448V20.224A0.59 0.59 0 0 1 52.355 20.224V8.448A0.588 0.588 0 1 1 53.533 8.448M49.411 8.448A0.588 0.588 0 1 1 50.588 8.448V20.224A0.589 0.589 0 1 1 49.411 20.224zM46.467 8.448A0.588 0.588 0 1 1 47.645 8.448V20.224A0.59 0.59 0 0 1 46.467 20.224zM43.523 8.448A0.59 0.59 0 0 1 44.701 8.448V20.224A0.589 0.589 0 1 1 43.523 20.224zM40.58 8.448A0.588 0.588 0 1 1 41.757 8.448V20.224A0.589 0.589 0 1 1 40.58 20.224zM49.163 65.896V58.557C49.163 57.251 48.592 56.022 47.553 55.079 47.511 55.079 47.469 55.086 47.427 55.086 45.247 55.086 42.945 54.034 41.112 52.201 39.085 50.172 38.017 47.567 38.26 45.234A0.9 0.9 0 0 1 39.063 44.431C39.276 44.409 39.494 44.398 39.714 44.398 41.896 44.398 44.196 45.449 46.031 47.282 47.953 49.206 49.01 51.648 48.907 53.885 50.105 55.031 50.813 56.485 50.94 58.047 50.988 57.995 51.044 57.948 51.094 57.898 51.064 55.718 52.111 53.37 53.975 51.505 55.808 49.672 58.11 48.619 60.291 48.619 60.512 48.619 60.73 48.631 60.941 48.654 61.365 48.698 61.701 49.032 61.744 49.456 61.986 51.79 60.921 54.395 58.892 56.424 57.059 58.256 54.756 59.309 52.574 59.309 52.463 59.309 52.352 59.297 52.241 59.291 51.415 60.183 50.967 61.281 50.967 62.437V71.549C51.006 71.505 51.052 71.467 51.094 71.426 51.018 69.21 52.073 66.806 53.975 64.905 55.808 63.072 58.11 62.019 60.291 62.019 60.512 62.019 60.73 62.031 60.941 62.054 61.365 62.096 61.701 62.432 61.744 62.856 61.986 65.19 60.921 67.794 58.892 69.824 57.059 71.657 54.756 72.709 52.574 72.709 52.506 72.709 52.436 72.7 52.366 72.698 51.466 73.608 50.967 74.756 50.967 75.967V86.02A0.9 0.9 0 1 1 49.166 86.02V81.822C49.166 80.609 48.665 79.459 47.761 78.547 47.65 78.553 47.541 78.565 47.429 78.565 45.248 78.565 42.945 77.514 41.112 75.68 39.085 73.651 38.018 71.047 38.261 68.713A0.9 0.9 0 0 1 39.064 67.911C39.276 67.888 39.494 67.877 39.715 67.877 41.897 67.877 44.198 68.929 46.031 70.761 47.895 72.626 48.944 74.977 48.913 77.157 48.998 77.239 49.084 77.321 49.164 77.407V70.313C49.166 69.099 48.665 67.95 47.761 67.038 47.65 67.044 47.541 67.056 47.429 67.056 45.248 67.056 42.945 66.004 41.112 64.17 39.085 62.142 38.018 59.537 38.261 57.203A0.9 0.9 0 0 1 39.064 56.399C39.276 56.378 39.494 56.367 39.715 56.367 41.896 56.367 44.198 57.419 46.031 59.252 47.895 61.117 48.944 63.468 48.913 65.647 48.996 65.729 49.083 65.811 49.163 65.896M64.131 39.654A3.532 3.532 0 1 1 64.131 32.587 3.532 3.532 0 0 1 64.132 39.654" fill="#1a76d1" data-fill-palette-color="accent"></path></svg></g></svg></g></svg></g></svg></g></svg></g><defs></defs></svg><rect width="395.5199999999999" height="184.97584521984098" fill="none" stroke="none" visibility="hidden"></rect></g></svg></g></svg>